<mxfile host="app.diagrams.net" modified="2023-11-19T14:44:36.648Z" agent="Mozilla/5.0 (Windows NT 10.0; Win64; x64) AppleWebKit/537.36 (KHTML, like Gecko) Chrome/119.0.0.0 Safari/537.36 Edg/119.0.0.0" etag="7K1gYpE0nGVd_zFEE1DK" version="22.1.3" type="device">
  <diagram name="第 1 页" id="8Goata_C4mtGEVAOtsTr">
    <mxGraphModel dx="1386" dy="785" grid="1" gridSize="10" guides="1" tooltips="1" connect="1" arrows="1" fold="1" page="1" pageScale="1" pageWidth="827" pageHeight="1169" math="0" shadow="0">
      <root>
        <mxCell id="0" />
        <mxCell id="1" parent="0" />
        <mxCell id="AqN7fXOnnvGa0q25064H-11" value="iCrawler" style="rounded=0;whiteSpace=wrap;html=1;fontSize=20;" parent="1" vertex="1">
          <mxGeometry x="760" y="110" width="120" height="60" as="geometry" />
        </mxCell>
        <mxCell id="AqN7fXOnnvGa0q25064H-14" value="搜索系統" style="rounded=0;whiteSpace=wrap;html=1;fontSize=20;" parent="1" vertex="1">
          <mxGeometry x="560" y="240" width="120" height="60" as="geometry" />
        </mxCell>
        <mxCell id="AqN7fXOnnvGa0q25064H-15" value="註冊/登入" style="rounded=0;whiteSpace=wrap;html=1;fontSize=20;" parent="1" vertex="1">
          <mxGeometry x="360" y="361" width="120" height="60" as="geometry" />
        </mxCell>
        <mxCell id="AqN7fXOnnvGa0q25064H-17" value="會員系統" style="rounded=0;whiteSpace=wrap;html=1;fontSize=20;" parent="1" vertex="1">
          <mxGeometry x="360" y="240" width="120" height="60" as="geometry" />
        </mxCell>
        <mxCell id="AqN7fXOnnvGa0q25064H-22" value="抓取內容" style="rounded=0;whiteSpace=wrap;html=1;fontSize=20;" parent="1" vertex="1">
          <mxGeometry x="560" y="479" width="120" height="60" as="geometry" />
        </mxCell>
        <mxCell id="AqN7fXOnnvGa0q25064H-29" value="爬蟲系統" style="rounded=0;whiteSpace=wrap;html=1;fontSize=20;container=0;" parent="1" vertex="1">
          <mxGeometry x="760" y="240" width="120" height="60" as="geometry" />
        </mxCell>
        <mxCell id="AqN7fXOnnvGa0q25064H-45" value="選取內容" style="rounded=0;whiteSpace=wrap;html=1;fontSize=20;" parent="1" vertex="1">
          <mxGeometry x="560" y="360" width="120" height="60" as="geometry" />
        </mxCell>
        <mxCell id="AqN7fXOnnvGa0q25064H-46" value="比對資料" style="rounded=0;whiteSpace=wrap;html=1;fontSize=20;container=0;" parent="1" vertex="1">
          <mxGeometry x="760" y="361" width="120" height="60" as="geometry" />
        </mxCell>
        <mxCell id="JLf1tRIx2tKbjudCVXi8-11" value="開始爬蟲" style="rounded=0;whiteSpace=wrap;html=1;fontSize=20;container=0;" parent="1" vertex="1">
          <mxGeometry x="760" y="479" width="120" height="60" as="geometry" />
        </mxCell>
        <mxCell id="JLf1tRIx2tKbjudCVXi8-13" value="回傳資料" style="rounded=0;whiteSpace=wrap;html=1;fontSize=20;container=0;" parent="1" vertex="1">
          <mxGeometry x="760" y="600" width="120" height="60" as="geometry" />
        </mxCell>
        <mxCell id="JLf1tRIx2tKbjudCVXi8-18" value="歷史紀錄" style="rounded=0;whiteSpace=wrap;html=1;fontSize=20;container=0;" parent="1" vertex="1">
          <mxGeometry x="960" y="240" width="120" height="60" as="geometry" />
        </mxCell>
        <mxCell id="JLf1tRIx2tKbjudCVXi8-19" value="查詢資料" style="rounded=0;whiteSpace=wrap;html=1;fontSize=20;container=0;" parent="1" vertex="1">
          <mxGeometry x="960" y="361" width="120" height="60" as="geometry" />
        </mxCell>
        <mxCell id="JLf1tRIx2tKbjudCVXi8-20" value="下載資料" style="rounded=0;whiteSpace=wrap;html=1;fontSize=20;container=0;" parent="1" vertex="1">
          <mxGeometry x="960" y="479" width="120" height="60" as="geometry" />
        </mxCell>
        <mxCell id="JLf1tRIx2tKbjudCVXi8-23" value="" style="endArrow=none;html=1;rounded=0;" parent="1" edge="1">
          <mxGeometry width="50" height="50" relative="1" as="geometry">
            <mxPoint x="819.5" y="200" as="sourcePoint" />
            <mxPoint x="819.5" y="170" as="targetPoint" />
          </mxGeometry>
        </mxCell>
        <mxCell id="JLf1tRIx2tKbjudCVXi8-24" value="" style="endArrow=none;html=1;rounded=0;" parent="1" edge="1">
          <mxGeometry width="50" height="50" relative="1" as="geometry">
            <mxPoint x="420" y="200" as="sourcePoint" />
            <mxPoint x="1220" y="200" as="targetPoint" />
          </mxGeometry>
        </mxCell>
        <mxCell id="JLf1tRIx2tKbjudCVXi8-25" value="" style="endArrow=none;html=1;rounded=0;exitX=0.5;exitY=0;exitDx=0;exitDy=0;" parent="1" source="AqN7fXOnnvGa0q25064H-17" edge="1">
          <mxGeometry width="50" height="50" relative="1" as="geometry">
            <mxPoint x="370" y="250" as="sourcePoint" />
            <mxPoint x="420" y="200" as="targetPoint" />
          </mxGeometry>
        </mxCell>
        <mxCell id="JLf1tRIx2tKbjudCVXi8-26" value="" style="endArrow=none;html=1;rounded=0;exitX=0.5;exitY=0;exitDx=0;exitDy=0;" parent="1" edge="1">
          <mxGeometry width="50" height="50" relative="1" as="geometry">
            <mxPoint x="619.5" y="240" as="sourcePoint" />
            <mxPoint x="619.5" y="200" as="targetPoint" />
          </mxGeometry>
        </mxCell>
        <mxCell id="JLf1tRIx2tKbjudCVXi8-27" value="" style="endArrow=none;html=1;rounded=0;exitX=0.5;exitY=0;exitDx=0;exitDy=0;" parent="1" edge="1">
          <mxGeometry width="50" height="50" relative="1" as="geometry">
            <mxPoint x="820" y="240" as="sourcePoint" />
            <mxPoint x="820" y="200" as="targetPoint" />
          </mxGeometry>
        </mxCell>
        <mxCell id="JLf1tRIx2tKbjudCVXi8-28" value="" style="endArrow=none;html=1;rounded=0;exitX=0.5;exitY=0;exitDx=0;exitDy=0;" parent="1" edge="1">
          <mxGeometry width="50" height="50" relative="1" as="geometry">
            <mxPoint x="1019.5" y="240" as="sourcePoint" />
            <mxPoint x="1019.5" y="200" as="targetPoint" />
          </mxGeometry>
        </mxCell>
        <mxCell id="JLf1tRIx2tKbjudCVXi8-29" value="" style="endArrow=none;html=1;rounded=0;" parent="1" edge="1">
          <mxGeometry width="50" height="50" relative="1" as="geometry">
            <mxPoint x="420" y="360" as="sourcePoint" />
            <mxPoint x="420" y="300" as="targetPoint" />
          </mxGeometry>
        </mxCell>
        <mxCell id="JLf1tRIx2tKbjudCVXi8-30" value="" style="endArrow=none;html=1;rounded=0;" parent="1" edge="1">
          <mxGeometry width="50" height="50" relative="1" as="geometry">
            <mxPoint x="619.5" y="361" as="sourcePoint" />
            <mxPoint x="619.5" y="301" as="targetPoint" />
          </mxGeometry>
        </mxCell>
        <mxCell id="JLf1tRIx2tKbjudCVXi8-31" value="" style="endArrow=none;html=1;rounded=0;" parent="1" edge="1">
          <mxGeometry width="50" height="50" relative="1" as="geometry">
            <mxPoint x="619.5" y="480" as="sourcePoint" />
            <mxPoint x="619.5" y="420" as="targetPoint" />
          </mxGeometry>
        </mxCell>
        <mxCell id="JLf1tRIx2tKbjudCVXi8-33" value="" style="endArrow=none;html=1;rounded=0;" parent="1" edge="1">
          <mxGeometry width="50" height="50" relative="1" as="geometry">
            <mxPoint x="819.5" y="360" as="sourcePoint" />
            <mxPoint x="819.5" y="300" as="targetPoint" />
          </mxGeometry>
        </mxCell>
        <mxCell id="JLf1tRIx2tKbjudCVXi8-34" value="" style="endArrow=none;html=1;rounded=0;" parent="1" edge="1">
          <mxGeometry width="50" height="50" relative="1" as="geometry">
            <mxPoint x="819.5" y="480" as="sourcePoint" />
            <mxPoint x="819.5" y="420" as="targetPoint" />
          </mxGeometry>
        </mxCell>
        <mxCell id="JLf1tRIx2tKbjudCVXi8-35" value="" style="endArrow=none;html=1;rounded=0;" parent="1" edge="1">
          <mxGeometry width="50" height="50" relative="1" as="geometry">
            <mxPoint x="819.5" y="599" as="sourcePoint" />
            <mxPoint x="819.5" y="539" as="targetPoint" />
          </mxGeometry>
        </mxCell>
        <mxCell id="JLf1tRIx2tKbjudCVXi8-36" value="" style="endArrow=none;html=1;rounded=0;" parent="1" edge="1">
          <mxGeometry width="50" height="50" relative="1" as="geometry">
            <mxPoint x="1019.5" y="480" as="sourcePoint" />
            <mxPoint x="1019.5" y="420" as="targetPoint" />
          </mxGeometry>
        </mxCell>
        <mxCell id="JLf1tRIx2tKbjudCVXi8-37" value="" style="endArrow=none;html=1;rounded=0;" parent="1" edge="1">
          <mxGeometry width="50" height="50" relative="1" as="geometry">
            <mxPoint x="1019.5" y="360" as="sourcePoint" />
            <mxPoint x="1019.5" y="300" as="targetPoint" />
          </mxGeometry>
        </mxCell>
        <mxCell id="QkrA3jREUu2kG9FHIevp-1" value="瀏覽器系統" style="rounded=0;whiteSpace=wrap;html=1;fontSize=20;container=0;" vertex="1" parent="1">
          <mxGeometry x="1160" y="240" width="120" height="60" as="geometry" />
        </mxCell>
        <mxCell id="QkrA3jREUu2kG9FHIevp-2" value="瀏覽器" style="rounded=0;whiteSpace=wrap;html=1;fontSize=20;container=0;" vertex="1" parent="1">
          <mxGeometry x="1160" y="360" width="120" height="60" as="geometry" />
        </mxCell>
        <mxCell id="QkrA3jREUu2kG9FHIevp-3" value="" style="endArrow=none;html=1;rounded=0;exitX=0.5;exitY=0;exitDx=0;exitDy=0;" edge="1" parent="1">
          <mxGeometry width="50" height="50" relative="1" as="geometry">
            <mxPoint x="1219.5" y="240" as="sourcePoint" />
            <mxPoint x="1219.5" y="200" as="targetPoint" />
          </mxGeometry>
        </mxCell>
        <mxCell id="QkrA3jREUu2kG9FHIevp-4" value="" style="endArrow=none;html=1;rounded=0;" edge="1" parent="1">
          <mxGeometry width="50" height="50" relative="1" as="geometry">
            <mxPoint x="1219.5" y="361" as="sourcePoint" />
            <mxPoint x="1219.5" y="301" as="targetPoint" />
          </mxGeometry>
        </mxCell>
      </root>
    </mxGraphModel>
  </diagram>
</mxfile>
